<svg xmlns="http://www.w3.org/2000/svg" width="76.539" height="140" viewBox="0 0 76.539 140">
  <path id="dollar-sign-solid" d="M55.636,63.82,26.928,55.18a8.061,8.061,0,0,1-5.635-7.738,7.954,7.954,0,0,1,7.842-8.066H46.758a15.909,15.909,0,0,1,9.091,2.871,4.058,4.058,0,0,0,5.183-.547l9.25-9.3a4.514,4.514,0,0,0-.478-6.7,36.928,36.928,0,0,0-22.993-8.2V4.375A4.328,4.328,0,0,0,42.558,0H34.051A4.328,4.328,0,0,0,29.8,4.375V17.5h-.665C12.2,17.5-1.409,32.457.16,50.2,1.276,62.809,10.633,73.063,22.435,76.617l27.246,8.2a8.086,8.086,0,0,1,5.635,7.738,7.954,7.954,0,0,1-7.842,8.066H29.852a15.909,15.909,0,0,1-9.091-2.871,4.058,4.058,0,0,0-5.183.547l-9.25,9.3a4.514,4.514,0,0,0,.478,6.7A36.928,36.928,0,0,0,29.8,122.5v13.125A4.328,4.328,0,0,0,34.051,140h8.506a4.328,4.328,0,0,0,4.253-4.375v-13.18c12.387-.246,24-7.82,28.1-19.879,5.715-16.844-3.881-34.125-19.272-38.746Z" transform="translate(-0.036)" fill="#fff"/>
</svg>
