<svg xmlns="http://www.w3.org/2000/svg" width="500.751" height="706.156" viewBox="0 0 500.751 706.156">
  <g id="undraw_contract_uy56" transform="translate(0 0)">
    <path id="Path_214" data-name="Path 214" d="M252.652,143.094a47.968,47.968,0,0,0-47.913,47.913V743a47.968,47.968,0,0,0,47.913,47.913H657.577A47.968,47.968,0,0,0,705.49,743V191.007a47.968,47.968,0,0,0-47.913-47.913Z" transform="translate(-204.739 -84.754)" fill="#3f3d56"/>
    <rect id="Rectangle_19" data-name="Rectangle 19" width="450.919" height="579.753" transform="translate(24.916 92.371)" fill="#fff"/>
    <rect id="Rectangle_20" data-name="Rectangle 20" width="333.024" height="21.878" transform="translate(83.864 196.289)" fill="#28f75f"/>
    <rect id="Rectangle_21" data-name="Rectangle 21" width="333.024" height="21.878" transform="translate(83.864 254.629)" fill="#28f75f"/>
    <rect id="Rectangle_22" data-name="Rectangle 22" width="333.024" height="21.878" transform="translate(83.864 312.969)" fill="#28f75f"/>
    <rect id="Rectangle_23" data-name="Rectangle 23" width="333.024" height="21.878" transform="translate(83.864 371.309)" fill="#28f75f"/>
    <rect id="Rectangle_24" data-name="Rectangle 24" width="333.024" height="21.878" transform="translate(83.864 429.649)" fill="#28f75f"/>
    <rect id="Rectangle_25" data-name="Rectangle 25" width="333.024" height="21.878" transform="translate(83.864 487.989)" fill="#28f75f"/>
    <rect id="Rectangle_26" data-name="Rectangle 26" width="333.024" height="21.878" transform="translate(83.864 546.329)" fill="#28f75f"/>
    <rect id="Rectangle_27" data-name="Rectangle 27" width="335.708" height="431.624" transform="translate(91.349 116.043) rotate(-10.37)" fill="#e6e6e6"/>
    <rect id="Rectangle_28" data-name="Rectangle 28" width="247.935" height="16.288" transform="translate(148.445 184.246) rotate(-10.37)" fill="#28f75f"/>
    <rect id="Rectangle_29" data-name="Rectangle 29" width="247.935" height="16.288" transform="translate(156.264 226.97) rotate(-10.37)" fill="#28f75f"/>
    <rect id="Rectangle_30" data-name="Rectangle 30" width="247.935" height="16.288" transform="translate(164.082 269.694) rotate(-10.37)" fill="#28f75f"/>
    <rect id="Rectangle_31" data-name="Rectangle 31" width="247.935" height="16.288" transform="translate(171.901 312.418) rotate(-10.37)" fill="#28f75f"/>
    <rect id="Rectangle_32" data-name="Rectangle 32" width="247.935" height="16.288" transform="translate(179.72 355.142) rotate(-10.37)" fill="#28f75f"/>
    <rect id="Rectangle_33" data-name="Rectangle 33" width="247.935" height="16.288" transform="translate(187.538 397.867) rotate(-10.37)" fill="#28f75f"/>
    <rect id="Rectangle_34" data-name="Rectangle 34" width="247.935" height="16.288" transform="translate(195.356 440.591) rotate(-10.37)" fill="#28f75f"/>
    <path id="Path_215" data-name="Path 215" d="M538.6,115.139H498.869V107a22.251,22.251,0,0,0-22.251-22.251H433.61a22.251,22.251,0,0,0-22.251,22.252v8.134H371.624a22.251,22.251,0,0,0-22.251,22.251V199H560.855V137.39A22.251,22.251,0,0,0,538.6,115.139Z" transform="translate(-204.739 -84.754)" fill="#3f3d56"/>
    <path id="Path_216" data-name="Path 216" d="M440.85,714.719c6.57-4.5,13.322-9.172,21.124-11.216,7.118-1.865,15.292-1.371,20.922,3.841,4.544,4.206,6.462,10.671,3.1,16.2a10.3,10.3,0,0,1-6.822,4.964,8.219,8.219,0,0,1-7.389-2.886c-1.765-1.951-2.821-4.833-1.883-7.4.986-2.7,3.625-4.357,6.216-5.279a46,46,0,0,1,9.27-1.915l12.892-1.765,52.769-7.224,58.765-8.045a1.836,1.836,0,0,0,1.273-2.243,1.87,1.87,0,0,0-2.243-1.273L491.909,706.485c-4.229.579-8.519.994-12.7,1.844a21.363,21.363,0,0,0-9.122,3.789c-5.6,4.435-5.2,12.279-.047,16.918,5.218,4.7,12.784,3.888,17.363-1.3a15.743,15.743,0,0,0,1.194-19.291c-5-7.537-14.107-10.433-22.81-9.364-10.065,1.236-18.6,6.894-26.773,12.489-1.925,1.317-.1,4.478,1.84,3.148Z" transform="translate(-204.739 -84.754)" fill="#3f3d56"/>
  </g>
</svg>
