<svg id="Group_2" data-name="Group 2" xmlns="http://www.w3.org/2000/svg" width="127.999" height="113.898" viewBox="0 0 127.999 113.898">
  <g id="Group_1" data-name="Group 1" transform="translate(0)">
    <path id="Path_2" data-name="Path 2" d="M125.868,8h-32a2.1,2.1,0,0,0-2.133,2.068,2.038,2.038,0,0,0,.625,1.463l9.158,8.881-4.539,4.4A55.953,55.953,0,0,0,64,14.206C33.412,14.162,8.579,38.173,8.534,67.835a52.19,52.19,0,0,0,2.182,15L.734,91.257a2.026,2.026,0,0,0-.239,2.885l10.667,12.412a2.157,2.157,0,0,0,1.481.738c.052,0,.106.006.158.006a2.172,2.172,0,0,0,1.417-.522l6.3-5.435c18.9,23.345,53.739,27.412,77.813,9.083,22.727-17.3,27.931-48.636,11.955-71.984l4.909-4.76,9.158,8.881a2.181,2.181,0,0,0,3.017,0A2.036,2.036,0,0,0,128,41.1V10.069A2.1,2.1,0,0,0,125.868,8ZM64,18.344a53.1,53.1,0,0,1,10.667,1.114v4.058A1.052,1.052,0,0,1,73.6,24.55H65.067a5.26,5.26,0,0,0-5.333,5.172v4.137a1.052,1.052,0,0,1-1.067,1.034H50.134a1.052,1.052,0,0,1-1.067-1.034,5.26,5.26,0,0,0-5.333-5.172H41.6a5.26,5.26,0,0,0-5.333,5.172v6.206A1.052,1.052,0,0,1,35.2,41.1H21A51.6,51.6,0,0,1,64,18.344ZM15.028,53.512H28.8a1.052,1.052,0,0,1,1.067,1.034v2.069A1.052,1.052,0,0,1,28.8,57.649H26.667a5.26,5.26,0,0,0-5.333,5.172,1.052,1.052,0,0,1-1.067,1.034H12.992A48.01,48.01,0,0,1,15.028,53.512Zm5.239,14.481A5.26,5.26,0,0,0,25.6,62.821a1.052,1.052,0,0,1,1.067-1.034H28.8a5.26,5.26,0,0,0,5.333-5.172V54.546A5.26,5.26,0,0,0,28.8,49.374H16.55q.888-2.12,1.968-4.137H35.2a5.26,5.26,0,0,0,5.333-5.172V33.859A1.052,1.052,0,0,1,41.6,32.825h2.133A1.052,1.052,0,0,1,44.8,33.859a5.26,5.26,0,0,0,5.333,5.172h8.533A5.26,5.26,0,0,0,64,33.859V29.722a1.052,1.052,0,0,1,1.067-1.034H73.6a5.26,5.26,0,0,0,5.333-5.172V20.521a51.29,51.29,0,0,1,14.994,7.251L61.867,58.861,52.709,49.98a2.179,2.179,0,0,0-2.908-.1L14.288,79.828A48.289,48.289,0,0,1,12.8,67.993Zm18.448,43.124a50.9,50.9,0,0,1-15-12.529L37.612,86.611H49.067A2.1,2.1,0,0,1,51.2,88.68a6.335,6.335,0,0,0,6.4,6.206,2.12,2.12,0,0,1,1.521.633,1.959,1.959,0,0,1,.613,1.435v4.137a2.1,2.1,0,0,1-2.133,2.069H49.067A10.6,10.6,0,0,0,38.716,111.117Zm25.5,6.52a10.61,10.61,0,0,1,10.45-8.269h6.4a6.209,6.209,0,1,0,0-12.412H75.734a1.035,1.035,0,1,1,0-2.069H107A51.593,51.593,0,0,1,64.217,117.637Zm45.266-26.888H75.734a5.174,5.174,0,1,0,0,10.344h5.333a2.07,2.07,0,1,1,0,4.137h-6.4a14.812,14.812,0,0,0-14.735,12.234A52.439,52.439,0,0,1,42.71,113.1a6.309,6.309,0,0,1,6.358-5.8H57.6a6.312,6.312,0,0,0,6.4-6.206V96.955a6.335,6.335,0,0,0-6.4-6.206,2.12,2.12,0,0,1-1.521-.633,1.959,1.959,0,0,1-.613-1.435,6.312,6.312,0,0,0-6.4-6.206H42.412l8.7-7.5,9.244,8.964a2.18,2.18,0,0,0,3.016,0h0L88.35,59.718h8.716a3.1,3.1,0,1,1,0,6.206H89.6a6.209,6.209,0,1,0,0,12.412h24.474A48.3,48.3,0,0,1,109.483,90.749Zm3.032-38.643A47.893,47.893,0,0,1,114.786,74.2H89.6a2.1,2.1,0,0,1-2.133-2.069,1.992,1.992,0,0,1,.652-1.473,2.081,2.081,0,0,1,1.481-.6h7.467a7.244,7.244,0,1,0,0-14.481h-4.45l4.267-4.137h15.372C112.337,51.666,112.437,51.882,112.515,52.106Zm-2.006-4.8H101.15l6.061-5.878A49.247,49.247,0,0,1,110.509,47.306Zm13.224-11.2-7.025-6.812a2.18,2.18,0,0,0-3.016,0h0L61.867,79.549l-9.158-8.881a2.181,2.181,0,0,0-2.925-.084L13.03,102.265,5.111,93.05,51.1,54.27l9.26,8.979a2.18,2.18,0,0,0,3.016,0h0l42.666-41.374a2.024,2.024,0,0,0,0-2.924h0l-7.025-6.812h24.716Z" transform="translate(-0.001 -8)" fill="#fff"/>
  </g>
</svg>
