<svg xmlns="http://www.w3.org/2000/svg" width="128" height="128" viewBox="0 0 128 128">
  <path id="leaf-solid" d="M121.432,2.407c-1.245-3.125-4.8-3.25-6.289-.3-6.89,13.473-19.224,21.872-33.314,21.872H64.049c-23.558,0-42.671,21.5-42.671,47.994,0,1.75.178,3.425.333,5.124C35.89,65.673,56.359,55.975,85.384,55.975a4.027,4.027,0,0,1,0,8c-55.872,0-79.563,38.52-84.808,52.993-1.467,4.074.267,8.724,3.889,10.4,3.645,1.7,7.779-.275,9.29-4.324.333-.9,4.645-11.973,15.979-22.647,7.2,10.974,20.891,21.447,38.87,19.3,34.892-2.85,59.45-38.045,59.45-81.139a100.706,100.706,0,0,0-6.623-36.145Z" transform="translate(-0.055 0.024)" fill="#fff"/>
</svg>
